<?xml version="1.0"?>
<svg xmlns="http://www.w3.org/2000/svg" xmlns:xlink="http://www.w3.org/1999/xlink" xmlns:svgjs="http://svgjs.com/svgjs" version="1.1" width="512" height="512" x="0" y="0" viewBox="0 0 407.007 407.007" style="enable-background:new 0 0 512 512" xml:space="preserve"><g transform="matrix(0.9800000000000002,0,0,0.9800000000000002,4.070087127685412,4.070078887939502)">
<g xmlns="http://www.w3.org/2000/svg">
	<g>
		<g>
			<rect x="99.014" y="145.782" width="47.02" height="41.796" fill="#a0338a" data-original="#000000" style=""/>
			<path d="M271.422,30.844h-29.78c-3.716-0.115-6.909-2.67-7.837-6.269c-2.822-14.661-15.903-25.082-30.824-24.555     c-15.011-0.263-28.028,10.327-30.824,25.078c-0.966,3.5-4.209,5.878-7.837,5.747h-28.735v52.245h135.837V30.844z" fill="#a0338a" data-original="#000000" style=""/>
			<path d="M355.014,382.974V83.611c0.032-11.83-9.533-21.446-21.363-21.478c-0.542-0.001-1.084,0.018-1.625,0.057h-44.931v26.645     c0,4.18-2.612,9.927-6.792,9.927H126.181c-4.18,0-6.269-5.747-6.269-9.927V62.191H74.981     c-11.798-0.866-22.065,7.997-22.93,19.796c-0.04,0.541-0.059,1.083-0.057,1.625v299.363     c-0.292,12.981,9.995,23.741,22.976,24.032c0.004,0,0.008,0,0.012,0h257.045c12.981-0.285,23.273-11.04,22.988-24.021     C355.014,382.982,355.014,382.978,355.014,382.974z M83.34,195.415v-57.469c0-4.328,3.509-7.837,7.837-7.837h62.694     c4.328,0,7.837,3.509,7.837,7.837v57.469c0,4.328-3.509,7.837-7.837,7.837H91.177C86.849,203.252,83.34,199.743,83.34,195.415z      M161.185,314.011l-40.751,38.139c-1.303,1.559-3.196,2.505-5.224,2.612c-2.183-0.086-4.246-1.024-5.747-2.612l-21.42-21.943     c-2.847-3.188-2.614-8.069,0.522-10.971c3.047-2.987,7.924-2.987,10.971,0l15.673,16.718l35.527-33.437     c3.562-2.458,8.443-1.564,10.901,1.998C163.643,307.421,163.457,311.309,161.185,314.011z M161.185,230.419L161.185,230.419     l-40.751,38.139c-1.303,1.559-3.196,2.505-5.224,2.612c-2.183-0.086-4.246-1.024-5.747-2.612l-21.42-21.943     c-2.847-3.188-2.614-8.069,0.522-10.971c3.047-2.987,7.924-2.987,10.971,0l15.673,16.718l35.527-33.437     c3.562-2.458,8.443-1.564,10.901,1.998C163.643,223.829,163.457,227.717,161.185,230.419z M313.218,344.313H193.054     c-4.328,0-7.837-3.509-7.837-7.837s3.509-7.837,7.837-7.837h120.163c4.328,0,7.837,3.509,7.837,7.837     S317.546,344.313,313.218,344.313z M313.218,260.721H193.054c-4.328,0-7.837-3.509-7.837-7.837c0-4.328,3.509-7.837,7.837-7.837     h120.163c4.328,0,7.837,3.509,7.837,7.837C321.054,257.212,317.546,260.721,313.218,260.721z M313.218,177.129H193.054     c-4.328,0-7.837-3.509-7.837-7.837c0-4.328,3.509-7.837,7.837-7.837h120.163c4.328,0,7.837,3.509,7.837,7.837     C321.054,173.621,317.546,177.129,313.218,177.129z" fill="#a0338a" data-original="#000000" style=""/>
		</g>
	</g>
</g>
<g xmlns="http://www.w3.org/2000/svg">
</g>
<g xmlns="http://www.w3.org/2000/svg">
</g>
<g xmlns="http://www.w3.org/2000/svg">
</g>
<g xmlns="http://www.w3.org/2000/svg">
</g>
<g xmlns="http://www.w3.org/2000/svg">
</g>
<g xmlns="http://www.w3.org/2000/svg">
</g>
<g xmlns="http://www.w3.org/2000/svg">
</g>
<g xmlns="http://www.w3.org/2000/svg">
</g>
<g xmlns="http://www.w3.org/2000/svg">
</g>
<g xmlns="http://www.w3.org/2000/svg">
</g>
<g xmlns="http://www.w3.org/2000/svg">
</g>
<g xmlns="http://www.w3.org/2000/svg">
</g>
<g xmlns="http://www.w3.org/2000/svg">
</g>
<g xmlns="http://www.w3.org/2000/svg">
</g>
<g xmlns="http://www.w3.org/2000/svg">
</g>
</g></svg>
